<svg id="Layer_1" data-name="Layer 1" xmlns="http://www.w3.org/2000/svg" xmlns:xlink="http://www.w3.org/1999/xlink" viewBox="0 0 249.56 112"><defs><style>.cls-1{fill:none;}.cls-2{clip-path:url(#clip-path);}.cls-3{fill:#fff;}</style><clipPath id="clip-path" transform="translate(0 0)"><rect class="cls-1" width="249.56" height="112"/></clipPath></defs><title>utah_logo_footer_white</title><g id="Artwork_1" data-name="Artwork 1"><g class="cls-2"><g class="cls-2"><path class="cls-3" d="M115.67,76.11a1.3,1.3,0,0,0,1.26-1.3v-5a1.23,1.23,0,0,0-1.26-1.23L111,68.39c-6.1-.59-6.12-4.63-6.12-4.63-0.06-.69-0.11-2.16-0.11-2.86V39.42A1.27,1.27,0,0,1,106,38.16h1.18c6.14,0,9.67,4.21,9.67,12.28v0.08a2.48,2.48,0,0,0,1.27.17h5.72a1.26,1.26,0,0,0,1.26-1.26V30.59a1.26,1.26,0,0,0-1.26-1.26H67a1.26,1.26,0,0,0-1.26,1.26V49.43A1.27,1.27,0,0,0,67,50.7H74V50.44c0-8.07,3.45-12.28,9.59-12.28H84.8a1.27,1.27,0,0,1,1.26,1.27V63.29c0,3.79-2.33,5.05-5.64,5.89-1.08.27-5.09,0.7-5.09,0.7a1.34,1.34,0,0,0-1.26,1.42v4.85a1.27,1.27,0,0,0,1.3,1.28s15.17-.77,21-0.93c12.46-.34,19.27-0.38,19.27-0.38" transform="translate(0 0)"/><path class="cls-3" d="M65.69,76.76V71.7a1.29,1.29,0,0,0-1.57-1.23c-3.25-.14-6.83-1-6.83-4.63v-24a4.11,4.11,0,0,1,3.38-4.35l1.16-.2a1.43,1.43,0,0,0,1.26-1.27V30.59a1.27,1.27,0,0,0-1.26-1.26H40.69a1.26,1.26,0,0,0-1.26,1.26v5.47a1.27,1.27,0,0,0,1.26,1.27h0.53a3.54,3.54,0,0,1,3.85,3.53c0,0.69.06,1.83,0.06,2.52V59.47c0,6-4.83,8.17-9.11,8.17-4.44,0-9.86-2.15-9.86-8.13l0-17.39a4.72,4.72,0,0,1,4.91-4.8h0.59a1.27,1.27,0,0,0,1.26-1.27V30.59a1.26,1.26,0,0,0-1.26-1.26H1.26A1.26,1.26,0,0,0,0,30.59v5.47a1.27,1.27,0,0,0,1.26,1.27h1.6c4.29,0,4.6,3.53,4.6,3.53,0.07,0.69.11,1.83,0.11,2.52V60.07s-0.19,10.11,1,12.81a8.56,8.56,0,0,1-4,2.92,16.93,16.93,0,0,1-3.21.8A1.39,1.39,0,0,0,.09,77.87v5.56a1.88,1.88,0,0,0,1.69,1.75s17.43-2.74,30.17-4.12c18.4-2,32.41-2.94,32.41-2.94a1.5,1.5,0,0,0,1.33-1.36" transform="translate(0 0)"/><path class="cls-3" d="M245.45,37.52a18.5,18.5,0,0,1,2.51-.2h0.33a1.27,1.27,0,0,0,1.26-1.26V30.59a1.27,1.27,0,0,0-1.26-1.26H219.53a1.26,1.26,0,0,0-1.26,1.26v5.48a1.25,1.25,0,0,0,.88,1.19l0.19,0a3.67,3.67,0,0,1,3.87,3.58c0.05,0.69.09,1.83,0.09,2.52V51a1.27,1.27,0,0,1-1.26,1.26H208.93A1.27,1.27,0,0,1,207.67,51V42.12c0-3.18.24-4.44,2.56-4.76,0.21,0,.41,0,0.63,0,0,0,.54,0,0.94-0.07a1.28,1.28,0,0,0,.91-1.19V30.59a1.27,1.27,0,0,0-1-1.24l-0.26,0H182.69a1.26,1.26,0,0,0-1.26,1.26v5.47a1.27,1.27,0,0,0,1.26,1.26h1.59c4.37,0,4.56,3.53,4.56,3.53,0,0.69.07,1.83,0.07,2.52V65.84c0,3.79-2.53,4.22-3.4,4.34s-1.6.18-1.61,0.18a1.12,1.12,0,0,0-1.16,1.26v5.16A1.25,1.25,0,0,0,183.93,78h0l0.3,0c19,1.36,26.89,2.29,26.89,2.29a1.3,1.3,0,0,0,1.58-1V74.46c0-1-.21-1.68-1-1.81a4.48,4.48,0,0,1-4-3.74c0-.7-0.09-1.4-0.09-2.09V61.54a1.27,1.27,0,0,1,1.26-1.26h13.13a1.26,1.26,0,0,1,1.26,1.26v6.9c0,3.79-.07,5-3.43,5a1.27,1.27,0,0,0-1.61,1.26V80a1.16,1.16,0,0,0,1.26,1.26s9.85,1.12,14.27,1.75,14.5,2.19,14.5,2.19A1.27,1.27,0,0,0,249.56,84V78.39c0-.69-0.28-1.07-1.26-1.26-1.57-.3-2.52-0.56-2.52-0.56a4.28,4.28,0,0,1-3.62-4.27c0-.7-0.08-1.72-0.08-2.42V42.12a4.33,4.33,0,0,1,3.38-4.6" transform="translate(0 0)"/><path class="cls-3" d="M180.11,71.43A1.15,1.15,0,0,0,179,70.1L178.76,70c-3.78-.84-4.76-2.15-6.3-6-0.59-1.5-10.52-33.46-10.52-33.46a1.83,1.83,0,0,0-1.64-1.2H142.39a1.91,1.91,0,0,0-1.67,1.19L129.47,62.75c-1.34,3.87-2.56,5-5.61,5.64a29,29,0,0,1-3.21.16,1.18,1.18,0,0,0-1.06,1.27v5A1.26,1.26,0,0,0,120.86,76l14.51,0a1.52,1.52,0,0,0,1.58-1.23l1.77-6a1.86,1.86,0,0,1,1.65-1.19h12.71a1.86,1.86,0,0,1,1.65,1.19l1.93,6s0.49,1.85,2,1.9c3.37,0.12,19.86,1,19.86,1a1.39,1.39,0,0,0,1.59-1.09V71.43ZM150.38,59.52H143a0.9,0.9,0,0,1-.92-1.21l4.11-14.65c0.19-.67.51-0.67,0.71,0l4.41,14.66a0.89,0.89,0,0,1-.9,1.21" transform="translate(0 0)"/><path class="cls-3" d="M96.45,9.63H88.67a0.55,0.55,0,0,1-.55-0.54V0.55A0.55,0.55,0,0,0,87.58,0H84.77a0.55,0.55,0,0,0-.55.55V12.29a0.55,0.55,0,0,0,.55.55H96.45A0.54,0.54,0,0,0,97,12.29V10.18a0.54,0.54,0,0,0-.54-0.55" transform="translate(0 0)"/><path class="cls-3" d="M110.11,0h-2.82a0.55,0.55,0,0,0-.55.55V12.29a0.55,0.55,0,0,0,.55.55h2.82a0.55,0.55,0,0,0,.54-0.55V0.55A0.55,0.55,0,0,0,110.11,0" transform="translate(0 0)"/><path class="cls-3" d="M135.74,0H123.2a0.55,0.55,0,0,0-.54.55V12.29a0.54,0.54,0,0,0,.54.55H126a0.55,0.55,0,0,0,.54-0.55V8.21a0.55,0.55,0,0,1,.54-0.55h8.63a0.55,0.55,0,0,0,.55-0.55V5.67a0.55,0.55,0,0,0-.55-0.54h-8.63a0.55,0.55,0,0,1-.54-0.54V3.48a0.55,0.55,0,0,1,.54-0.54h8.63a0.55,0.55,0,0,0,.55-0.55V0.55A0.55,0.55,0,0,0,135.74,0" transform="translate(0 0)"/><path class="cls-3" d="M161.08,0H147.85a0.55,0.55,0,0,0-.54.55V12.29a0.55,0.55,0,0,0,.54.55h13.23a0.55,0.55,0,0,0,.55-0.55V10.48a0.55,0.55,0,0,0-.55-0.55h-9.32a0.54,0.54,0,0,1-.54-0.54V8.21a0.54,0.54,0,0,1,.54-0.55h8.63a0.55,0.55,0,0,0,.54-0.55V5.67a0.54,0.54,0,0,0-.54-0.54h-8.63a0.54,0.54,0,0,1-.54-0.54V3.48a0.54,0.54,0,0,1,.54-0.54h9.32a0.55,0.55,0,0,0,.55-0.55V0.55A0.56,0.56,0,0,0,161.08,0" transform="translate(0 0)"/><path class="cls-3" d="M39.68,99.16H26.45a0.55,0.55,0,0,0-.55.55v11.74a0.55,0.55,0,0,0,.55.55H39.68a0.55,0.55,0,0,0,.54-0.55v-1.81a0.55,0.55,0,0,0-.54-0.55H30.36a0.54,0.54,0,0,1-.55-0.54v-1.17a0.55,0.55,0,0,1,.55-0.55H39a0.55,0.55,0,0,0,.55-0.55v-1.45a0.55,0.55,0,0,0-.55-0.54H30.36a0.55,0.55,0,0,1-.55-0.55v-1.1a0.55,0.55,0,0,1,.55-0.55h9.32a0.55,0.55,0,0,0,.54-0.55V99.71a0.56,0.56,0,0,0-.54-0.55" transform="translate(0 0)"/><path class="cls-3" d="M64,108.79H56.23a0.55,0.55,0,0,1-.55-0.54V99.71a0.56,0.56,0,0,0-.55-0.55H52.32a0.55,0.55,0,0,0-.54.55v11.74a0.55,0.55,0,0,0,.54.55H64a0.54,0.54,0,0,0,.55-0.55v-2.12a0.54,0.54,0,0,0-.55-0.55" transform="translate(0 0)"/><path class="cls-3" d="M89.15,99.16H75.93a0.56,0.56,0,0,0-.55.55v11.74a0.55,0.55,0,0,0,.55.55H89.15a0.55,0.55,0,0,0,.55-0.55v-1.81a0.55,0.55,0,0,0-.55-0.55H79.84a0.54,0.54,0,0,1-.54-0.54v-1.17a0.55,0.55,0,0,1,.54-0.55h8.63a0.55,0.55,0,0,0,.55-0.55v-1.45a0.54,0.54,0,0,0-.55-0.54H79.84a0.55,0.55,0,0,1-.54-0.55v-1.1a0.55,0.55,0,0,1,.54-0.55h9.32a0.55,0.55,0,0,0,.55-0.55V99.71a0.56,0.56,0,0,0-.55-0.55" transform="translate(0 0)"/><path class="cls-3" d="M119,99.16h-3.25a1,1,0,0,0-.81.49l-4.74,8.71a0.26,0.26,0,0,1-.51,0l-4.53-8.71a1,1,0,0,0-.8-0.49h-3.17a0.3,0.3,0,0,0-.29.49l6.26,11.87a1,1,0,0,0,.8.49h3.89a1.07,1.07,0,0,0,.82-0.48l6.62-11.88a0.29,0.29,0,0,0-.29-0.48" transform="translate(0 0)"/><path class="cls-3" d="M139.61,99.65a1,1,0,0,0-.81-0.49h-4.17a1,1,0,0,0-.81.48l-6.63,11.88a0.3,0.3,0,0,0,.28.48h3.26a1,1,0,0,0,.8-0.48l0.75-1.38a1,1,0,0,1,.81-0.47h7.21a1,1,0,0,1,.79.48l0.71,1.36a1,1,0,0,0,.8.49h3.22a0.3,0.3,0,0,0,.28-0.48ZM138.86,107h-4.41a0.3,0.3,0,0,1-.28-0.48l2.23-4.12a0.27,0.27,0,0,1,.52,0l2.23,4.12a0.3,0.3,0,0,1-.29.48" transform="translate(0 0)"/><path class="cls-3" d="M169.22,99.16H155a0.55,0.55,0,0,0-.55.55v2.12a0.56,0.56,0,0,0,.55.56h4.64a0.54,0.54,0,0,1,.55.54v8.53a0.55,0.55,0,0,0,.55.55h2.81a0.55,0.55,0,0,0,.55-0.55v-8.53a0.54,0.54,0,0,1,.55-0.54h4.61a0.56,0.56,0,0,0,.55-0.56V99.71a0.56,0.56,0,0,0-.55-0.55" transform="translate(0 0)"/><path class="cls-3" d="M194.4,99.16H181.17a0.56,0.56,0,0,0-.55.55v11.74a0.55,0.55,0,0,0,.55.55H194.4a0.55,0.55,0,0,0,.54-0.55v-1.81a0.55,0.55,0,0,0-.54-0.55h-9.32a0.55,0.55,0,0,1-.55-0.54v-1.17a0.55,0.55,0,0,1,.55-0.55h8.62a0.55,0.55,0,0,0,.55-0.55v-1.45a0.55,0.55,0,0,0-.55-0.54h-8.62a0.55,0.55,0,0,1-.55-0.55v-1.1a0.55,0.55,0,0,1,.55-0.55h9.32a0.55,0.55,0,0,0,.54-0.55V99.71a0.55,0.55,0,0,0-.54-0.55" transform="translate(0 0)"/><path class="cls-3" d="M223.65,104.93c0-4.64-1.29-5.77-5.87-5.77H207a0.55,0.55,0,0,0-.55.55v11.74a0.55,0.55,0,0,0,.55.55h12.19c2.11,0,3.7-1,4.19-3,0-.1.09-0.2,0.1-0.31a20.71,20.71,0,0,0,.15-2.49V105.3c0-.07,0-0.19,0-0.3v-0.07Zm-3.95.69c0,2.25-.17,3.24-2.75,3.24h-6a0.54,0.54,0,0,1-.51-0.54v-5.46a0.55,0.55,0,0,1,.55-0.54H217c2.66,0,2.7,1,2.7,3.2v0.12Z" transform="translate(0 0)"/><path class="cls-3" d="M228.07,100.52a1.37,1.37,0,1,1,1.36,1.31,1.35,1.35,0,0,1-1.36-1.31m1.36,1.08a1,1,0,0,0,1.08-1.08,1.08,1.08,0,1,0-2.16,0,1,1,0,0,0,1.08,1.08m-0.28-.34h-0.23V99.73h0.57c0.4,0,.57.11,0.57,0.45a0.36,0.36,0,0,1-.4.4l0.45,0.68h-0.28l-0.4-.68h-0.28v0.68Zm0.28-.85c0.17,0,.4,0,0.4-0.29a0.28,0.28,0,0,0-.34-0.23h-0.34v0.51h0.28Z" transform="translate(0 0)"/></g></g></g></svg>