<svg id="Layer_1" data-name="Layer 1" xmlns="http://www.w3.org/2000/svg" viewBox="0 0 28 28"><defs><style>.cls-1{fill:#fff;}</style></defs><title>instagram</title><path class="cls-1" d="M24.11,0H3.89A3.89,3.89,0,0,0,0,3.89V24.11A3.89,3.89,0,0,0,3.89,28H24.11A3.89,3.89,0,0,0,28,24.11V3.89A3.89,3.89,0,0,0,24.11,0ZM14,8.56A5.44,5.44,0,1,1,8.56,14,5.44,5.44,0,0,1,14,8.56ZM24.89,24.11a0.78,0.78,0,0,1-.78.78H3.89a0.78,0.78,0,0,1-.78-0.78V11.67H5.77a8.56,8.56,0,1,0,16.45,0h2.66V24.11Zm0-16.33a0.78,0.78,0,0,1-.78.78H20.22a0.78,0.78,0,0,1-.78-0.78V3.89a0.78,0.78,0,0,1,.78-0.78h3.89a0.78,0.78,0,0,1,.78.78V7.78Z"/></svg>