<svg id="Layer_1" data-name="Layer 1" xmlns="http://www.w3.org/2000/svg" viewBox="0 0 27.85 22.65"><defs><style>.cls-1{fill:#fff;}</style></defs><title>05</title><path class="cls-1" d="M27.93,5.41a10.07,10.07,0,0,1-3.19.91,6.09,6.09,0,0,0,2.39-3.13,9.31,9.31,0,0,1-3.58,1.27h0A5.74,5.74,0,0,0,13.8,9.71h0a15.92,15.92,0,0,1-11.85-6,5.74,5.74,0,0,0,1.74,7.59,3.69,3.69,0,0,1-2.51-.65A5.54,5.54,0,0,0,5.62,16.3a4.56,4.56,0,0,1-2.39.18c0.18,1.69,2.55,3.9,5.14,3.9A10.22,10.22,0,0,1,.07,22.77a17.27,17.27,0,0,0,9,2.55A16,16,0,0,0,25.14,8.54V8.35A9.91,9.91,0,0,0,27.93,5.41Z" transform="translate(-0.07 -2.68)"/></svg>